<?xml version="1.0" ?><svg viewBox="0 0 22.617 22.592" xmlns="http://www.w3.org/2000/svg"><g data-name="Layer 2" id="Layer_2"><g data-name="Layer 1" id="Layer_1-2"><path d="M22.191,16.778a.993.993,0,0,0-.955-.128.989.989,0,0,0-.427-1.089c-.464-.356-1.17-.052-2.34.451a21.9,21.9,0,0,1-2.741,1.016,1.659,1.659,0,0,0-1.365-.708,19.22,19.22,0,0,1-2.711-.094V14.405h5.14A4.92,4.92,0,0,0,21.7,9.489a.343.343,0,0,0-.343-.343H15.878a4.908,4.908,0,0,0-4.226,2.423V5.259h5.14A4.92,4.92,0,0,0,21.7.343.344.344,0,0,0,21.361,0H15.878a4.92,4.92,0,0,0-4.912,4.916V7A4.908,4.908,0,0,0,6.74,4.573H1.257a.344.344,0,0,0-.343.343A4.919,4.919,0,0,0,5.826,9.832h5.14V16.1C8.655,15.182,9.5,14.788,3.254,14.72L.4,14.266a.347.347,0,0,0-.4.339v6.169a.342.342,0,0,0,.289.338l2.856.454c4.27,1.512,13.365,1.885,18.636-2.656C22.144,18.7,23.2,17.575,22.191,16.778ZM17.7,2.287c-1.809-.08-4.542.039-5.732,1.02a4.23,4.23,0,0,1,3.9-2.621H21a4.232,4.232,0,0,1-4.212,3.887H11.726c.351-.825,1.931-1.6,4.152-1.6H17.7A.343.343,0,0,0,17.7,2.287ZM5.826,9.146A4.234,4.234,0,0,1,1.613,5.259H6.74a4.231,4.231,0,0,1,3.9,2.622C9.458,6.9,6.719,6.779,4.911,6.86a.343.343,0,0,0,0,.685H6.738c2.222,0,3.8.776,4.152,1.6ZM2.882,20.829l-2.2-.348V15.007l2.2.348Zm13.066-3.151c1.553-.347,3.252-1.454,4.444-1.573,1.115.967-3.074,2.01-4.484,2.43A1.879,1.879,0,0,0,15.948,17.678Zm-.07-7.846H21a4.233,4.233,0,0,1-4.212,3.887H11.726c.351-.825,1.931-1.6,4.152-1.6H17.7a.343.343,0,0,0,0-.686c-1.808-.08-4.542.04-5.732,1.021A4.23,4.23,0,0,1,15.878,9.832Zm5.5,8.527c-7.008,5.56-16.238,3.1-17.806,2.621V15.406c4.68.021,5.458.479,6.146.883.707.414,1.316.772,4.676.717a.927.927,0,0,1,.9,1.159c0,.1-.053.437-.651.658-.641.251-2.053.465-5.145.064a.343.343,0,0,0-.088.681c3.546.807,8.42-.67,10.833-1.809.7-.3,1.364-.579,1.513-.455C22.243,17.674,21.6,18.173,21.373,18.359ZM1.783,16.19a.343.343,0,0,1,0,.686A.343.343,0,0,1,1.783,16.19Z" id="ecology"/></g></g></svg>